<?xml version="1.0" encoding="us-ascii" standalone="no"?><svg xmlns="http://www.w3.org/2000/svg" xmlns:xlink="http://www.w3.org/1999/xlink" contentStyleType="text/css" height="472px" preserveAspectRatio="none" style="width:748px;height:472px;background:#FFFFFF;" version="1.1" viewBox="0 0 748 472" width="748px" zoomAndPan="magnify"><defs/><g><rect fill="#FFFFFF" height="336.8594" style="stroke:#181818;stroke-width:1.0;" width="10" x="198.5" y="82.5625"/><rect fill="#FFFFFF" height="44.2656" style="stroke:#181818;stroke-width:1.0;" width="10" x="365.5" y="126.8281"/><rect fill="#FFFFFF" height="117.6641" style="stroke:#181818;stroke-width:1.0;" width="10" x="461" y="272.625"/><rect fill="#FFFFFF" height="44.2656" style="stroke:#181818;stroke-width:1.0;" width="10" x="655" y="316.8906"/><line style="stroke:#181818;stroke-width:0.5;stroke-dasharray:5.0,5.0;" x1="23" x2="23" y1="36.2969" y2="437.4219"/><line style="stroke:#181818;stroke-width:0.5;stroke-dasharray:5.0,5.0;" x1="203" x2="203" y1="36.2969" y2="437.4219"/><line style="stroke:#181818;stroke-width:0.5;stroke-dasharray:5.0,5.0;" x1="370" x2="370" y1="36.2969" y2="437.4219"/><line style="stroke:#181818;stroke-width:0.5;stroke-dasharray:5.0,5.0;" x1="466" x2="466" y1="36.2969" y2="437.4219"/><line style="stroke:#181818;stroke-width:0.5;stroke-dasharray:5.0,5.0;" x1="660" x2="660" y1="36.2969" y2="437.4219"/><rect fill="#E2E2F0" height="30.2969" rx="2.5" ry="2.5" style="stroke:#181818;stroke-width:0.5;" width="37" x="5" y="5"/><text fill="#000000" font-family="sans-serif" font-size="14" lengthAdjust="spacing" textLength="23" x="12" y="24.9951">run</text><rect fill="#E2E2F0" height="30.2969" rx="2.5" ry="2.5" style="stroke:#181818;stroke-width:0.5;" width="37" x="5" y="436.4219"/><text fill="#000000" font-family="sans-serif" font-size="14" lengthAdjust="spacing" textLength="23" x="12" y="456.417">run</text><rect fill="#E2E2F0" height="30.2969" rx="2.5" ry="2.5" style="stroke:#181818;stroke-width:0.5;" width="53" x="177" y="5"/><text fill="#000000" font-family="sans-serif" font-size="14" lengthAdjust="spacing" textLength="39" x="184" y="24.9951">Policy</text><rect fill="#E2E2F0" height="30.2969" rx="2.5" ry="2.5" style="stroke:#181818;stroke-width:0.5;" width="53" x="177" y="436.4219"/><text fill="#000000" font-family="sans-serif" font-size="14" lengthAdjust="spacing" textLength="39" x="184" y="456.417">Policy</text><rect fill="#E2E2F0" height="30.2969" rx="2.5" ry="2.5" style="stroke:#181818;stroke-width:0.5;" width="99" x="321" y="5"/><text fill="#000000" font-family="sans-serif" font-size="14" lengthAdjust="spacing" textLength="85" x="328" y="24.9951">updateState</text><rect fill="#E2E2F0" height="30.2969" rx="2.5" ry="2.5" style="stroke:#181818;stroke-width:0.5;" width="99" x="321" y="436.4219"/><text fill="#000000" font-family="sans-serif" font-size="14" lengthAdjust="spacing" textLength="85" x="328" y="456.417">updateState</text><rect fill="#E2E2F0" height="30.2969" rx="2.5" ry="2.5" style="stroke:#181818;stroke-width:0.5;" width="72" x="430" y="5"/><text fill="#000000" font-family="sans-serif" font-size="14" lengthAdjust="spacing" textLength="58" x="437" y="24.9951">evaluate</text><rect fill="#E2E2F0" height="30.2969" rx="2.5" ry="2.5" style="stroke:#181818;stroke-width:0.5;" width="72" x="430" y="436.4219"/><text fill="#000000" font-family="sans-serif" font-size="14" lengthAdjust="spacing" textLength="58" x="437" y="456.417">evaluate</text><rect fill="#E2E2F0" height="30.2969" rx="2.5" ry="2.5" style="stroke:#181818;stroke-width:0.5;" width="164" x="578" y="5"/><text fill="#000000" font-family="sans-serif" font-size="14" lengthAdjust="spacing" textLength="150" x="585" y="24.9951">getNumberLineChess</text><rect fill="#E2E2F0" height="30.2969" rx="2.5" ry="2.5" style="stroke:#181818;stroke-width:0.5;" width="164" x="578" y="436.4219"/><text fill="#000000" font-family="sans-serif" font-size="14" lengthAdjust="spacing" textLength="150" x="585" y="456.417">getNumberLineChess</text><rect fill="#FFFFFF" height="336.8594" style="stroke:#181818;stroke-width:1.0;" width="10" x="198.5" y="82.5625"/><rect fill="#FFFFFF" height="44.2656" style="stroke:#181818;stroke-width:1.0;" width="10" x="365.5" y="126.8281"/><rect fill="#FFFFFF" height="117.6641" style="stroke:#181818;stroke-width:1.0;" width="10" x="461" y="272.625"/><rect fill="#FFFFFF" height="44.2656" style="stroke:#181818;stroke-width:1.0;" width="10" x="655" y="316.8906"/><polygon fill="#181818" points="186.5,78.5625,196.5,82.5625,186.5,86.5625,190.5,82.5625" style="stroke:#181818;stroke-width:1.0;"/><line style="stroke:#181818;stroke-width:1.0;" x1="23.5" x2="192.5" y1="82.5625" y2="82.5625"/><text fill="#000000" font-family="sans-serif" font-size="13" lengthAdjust="spacing" textLength="63" x="30.5" y="62.3638">Call Policy</text><text fill="#000000" font-family="sans-serif" font-size="13" lengthAdjust="spacing" textLength="99" x="34.5" y="77.4966">with initial state</text><polygon fill="#181818" points="353.5,122.8281,363.5,126.8281,353.5,130.8281,357.5,126.8281" style="stroke:#181818;stroke-width:1.0;"/><line style="stroke:#181818;stroke-width:1.0;" x1="208.5" x2="359.5" y1="126.8281" y2="126.8281"/><text fill="#000000" font-family="sans-serif" font-size="13" lengthAdjust="spacing" textLength="107" x="215.5" y="106.6294">Call updateState</text><text fill="#000000" font-family="sans-serif" font-size="13" lengthAdjust="spacing" textLength="113" x="219.5" y="121.7622">to get next action</text><polygon fill="#181818" points="219.5,167.0938,209.5,171.0938,219.5,175.0938,215.5,171.0938" style="stroke:#181818;stroke-width:1.0;"/><line style="stroke:#181818;stroke-width:1.0;stroke-dasharray:2.0,2.0;" x1="213.5" x2="369.5" y1="171.0938" y2="171.0938"/><text fill="#000000" font-family="sans-serif" font-size="13" lengthAdjust="spacing" textLength="97" x="225.5" y="150.895">Return whether</text><text fill="#000000" font-family="sans-serif" font-size="13" lengthAdjust="spacing" textLength="118" x="229.5" y="166.0278">state was updated</text><line style="stroke:#181818;stroke-width:1.0;" x1="208.5" x2="250.5" y1="215.3594" y2="215.3594"/><line style="stroke:#181818;stroke-width:1.0;" x1="250.5" x2="250.5" y1="215.3594" y2="228.3594"/><line style="stroke:#181818;stroke-width:1.0;" x1="209.5" x2="250.5" y1="228.3594" y2="228.3594"/><polygon fill="#181818" points="219.5,224.3594,209.5,228.3594,219.5,232.3594,215.5,228.3594" style="stroke:#181818;stroke-width:1.0;"/><text fill="#000000" font-family="sans-serif" font-size="13" lengthAdjust="spacing" textLength="143" x="215.5" y="195.1606">Recursive call to Policy</text><text fill="#000000" font-family="sans-serif" font-size="13" lengthAdjust="spacing" textLength="119" x="219.5" y="210.2935">with updated state</text><polygon fill="#181818" points="449,268.625,459,272.625,449,276.625,453,272.625" style="stroke:#181818;stroke-width:1.0;"/><line style="stroke:#181818;stroke-width:1.0;" x1="208.5" x2="455" y1="272.625" y2="272.625"/><text fill="#000000" font-family="sans-serif" font-size="13" lengthAdjust="spacing" textLength="171" x="215.5" y="252.4263">Call evaluate if termination</text><text fill="#000000" font-family="sans-serif" font-size="13" lengthAdjust="spacing" textLength="134" x="219.5" y="267.5591">or max level reached</text><polygon fill="#181818" points="643,312.8906,653,316.8906,643,320.8906,647,316.8906" style="stroke:#181818;stroke-width:1.0;"/><line style="stroke:#181818;stroke-width:1.0;" x1="471" x2="649" y1="316.8906" y2="316.8906"/><text fill="#000000" font-family="sans-serif" font-size="13" lengthAdjust="spacing" textLength="165" x="478" y="296.6919">Call getNumberLineChess</text><text fill="#000000" font-family="sans-serif" font-size="13" lengthAdjust="spacing" textLength="147" x="482" y="311.8247">for each board position</text><polygon fill="#181818" points="482,357.1563,472,361.1563,482,365.1563,478,361.1563" style="stroke:#181818;stroke-width:1.0;"/><line style="stroke:#181818;stroke-width:1.0;stroke-dasharray:2.0,2.0;" x1="476" x2="659" y1="361.1563" y2="361.1563"/><text fill="#000000" font-family="sans-serif" font-size="13" lengthAdjust="spacing" textLength="96" x="488" y="340.9575">Return number</text><text fill="#000000" font-family="sans-serif" font-size="13" lengthAdjust="spacing" textLength="79" x="492" y="356.0903">of line chess</text><polygon fill="#181818" points="219.5,386.2891,209.5,390.2891,219.5,394.2891,215.5,390.2891" style="stroke:#181818;stroke-width:1.0;"/><line style="stroke:#181818;stroke-width:1.0;stroke-dasharray:2.0,2.0;" x1="213.5" x2="465" y1="390.2891" y2="390.2891"/><text fill="#000000" font-family="sans-serif" font-size="13" lengthAdjust="spacing" textLength="151" x="225.5" y="385.2231">Return evaluation score</text><polygon fill="#181818" points="34.5,415.4219,24.5,419.4219,34.5,423.4219,30.5,419.4219" style="stroke:#181818;stroke-width:1.0;"/><line style="stroke:#181818;stroke-width:1.0;stroke-dasharray:2.0,2.0;" x1="28.5" x2="202.5" y1="419.4219" y2="419.4219"/><text fill="#000000" font-family="sans-serif" font-size="13" lengthAdjust="spacing" textLength="151" x="40.5" y="414.356">Return final policy score</text></g></svg>